# xmcd CD database file
#
# Track frame offsets:
#	183
#	10123
#	21063
#	33740
#	45595
#	56043
#	68775
#	79120
#	90195
#	101355
#	113520
#	125448
#	137445
#	148930
#	158858
#	167228
#	174860
#	185265
#	197335
#	208400
#	217890
#	229845
#	239125
#	247860
#	256563
#	262475
#	272618
#	282868
#
# Disc length: 3914 seconds
#
# Revision: 1
# Processed by: cddbd v1.4PL0 Copyright (c) Steve Scherf et al.
# Submitted via: CDex 1.40Beta9
#
DISCID=820f481c
DTITLE=Johnny Cash - The Original Sun Singles Collection 1955-1959
DYEAR=1990
DGENRE=Country
TTITLE0=Hey Porter
TTITLE1=Cry Cry Cry
TTITLE2=Folsom Prison Blues
TTITLE3=So Doggone Lonesome
TTITLE4=Get Rhythm
TTITLE5=I Walk The Line
TTITLE6=There You Go
TTITLE7=Train Of Love
TTITLE8=Don't make Me Go
TTITLE9=The Next In Line
TTITLE10=Home Of The Blues
TTITLE11=Give Me Love To Rose
TTITLE12=Big River
TTITLE13=Ballad Of A Teenage Queen
TTITLE14=Guess Things Happen That Way
TTITLE15=Come In Stranger
TTITLE16=The Ways Of A Woman In Love
TTITLE17=You Are The Nearest Thing To Heaven
TTITLE18=I Just Thought You'd Like To Know
TTITLE19=It's Just About Time
TTITLE20=Thanks A Lot
TTITLE21=Luther Played The Boogie
TTITLE22=I Forgot To Remember To Forget
TTITLE23=Katy Too
TTITLE24=You Tell Me
TTITLE25=Goodbye Little Darling
TTITLE26=Straight A's In Love
TTITLE27=I Love You Because
EXTD=Singles Collection 1955-1959 YEAR: 1990 ID3G: 2
EXTT0=
EXTT1=
EXTT2=
EXTT3=
EXTT4=
EXTT5=
EXTT6=
EXTT7=
EXTT8=
EXTT9=
EXTT10=
EXTT11=
EXTT12=
EXTT13=
EXTT14=
EXTT15=
EXTT16=
EXTT17=
EXTT18=
EXTT19=
EXTT20=
EXTT21=
EXTT22=
EXTT23=
EXTT24=
EXTT25=
EXTT26=
EXTT27=
PLAYORDER=
